<?xml version="1.0"?>
<svg xmlns="http://www.w3.org/2000/svg" xmlns:xlink="http://www.w3.org/1999/xlink" xmlns:svgjs="http://svgjs.com/svgjs" version="1.1" width="512" height="512" x="0" y="0" viewBox="0 0 512 512" style="enable-background:new 0 0 512 512" xml:space="preserve" class=""><g><g xmlns="http://www.w3.org/2000/svg"><path d="m507.256 429.867-220.959-382.712c-13.468-23.329-47.122-23.338-60.596 0l-220.959 382.712c-13.465 23.32 3.343 52.478 30.298 52.478h441.918c26.928 0 43.776-29.135 30.298-52.478zm-30.298 22.49h-441.918c-3.844 0-6.267-4.139-4.328-7.497l220.959-382.711c1.923-3.33 6.718-3.358 8.657 0l220.959 382.712c1.926 3.337-.459 7.496-4.329 7.496z" fill="#ff9800" data-original="#000000" style=""/><ellipse cx="255.999" cy="393.664" rx="18.136" ry="18.136" transform="matrix(.851 -.526 .526 .851 -168.728 193.379)" fill="#ff9800" data-original="#000000" style=""/><path d="m256.194 349.228c8.281 0 14.994-6.713 14.994-14.994v-171.386c0-8.281-6.713-14.994-14.994-14.994s-14.994 6.713-14.994 14.994v171.386c0 8.281 6.713 14.994 14.994 14.994z" fill="#ff9800" data-original="#000000" style=""/></g></g></svg>
